Asap-Bold Italic.ufo
<glyph name="exclam" format="1">
  <advance width="294"/>
  <unicode hex="0021"/>
  <outline>
    <contour>
      <point x="190" y="702" type="line" smooth="yes"/>
      <point x="148" y="702"/>
      <point x="129" y="691"/>
      <point x="127" y="670" type="curve" smooth="yes"/>
      <point x="83" y="254" type="line"/>
      <point x="83" y="232"/>
      <point x="88" y="222"/>
      <point x="131" y="222" type="curve" smooth="yes"/>
      <point x="142" y="222" type="line" smooth="yes"/>
      <point x="183" y="222"/>
      <point x="191" y="233"/>
      <point x="196" y="254" type="curve"/>
      <point x="228" y="394"/>
      <point x="291" y="654"/>
      <point x="291" y="673" type="curve"/>
      <point x="291" y="691"/>
      <point x="273" y="702"/>
      <point x="233" y="702" type="curve" smooth="yes"/>
    </contour>
    <contour>
      <point x="113" y="154" type="line" smooth="yes"/>
      <point x="71" y="154"/>
      <point x="52" y="143"/>
      <point x="50" y="122" type="curve" smooth="yes"/>
      <point x="40" y="30" type="line"/>
      <point x="40" y="9"/>
      <point x="54" y="-2"/>
      <point x="97" y="-2" type="curve" smooth="yes"/>
      <point x="129" y="-2" type="line" smooth="yes"/>
      <point x="171" y="-2"/>
      <point x="190" y="9"/>
      <point x="192" y="30" type="curve" smooth="yes"/>
      <point x="202" y="122" type="line"/>
      <point x="202" y="143"/>
      <point x="188" y="154"/>
      <point x="145" y="154" type="curve" smooth="yes"/>
    </contour>
  </outline>
</glyph>
<glyph name="quotedbl" format="1">
  <advance width="319"/>
  <unicode hex="0022"/>
  <outline>
    <contour>
      <point x="240" y="702" type="line" smooth="yes"/>
      <point x="198" y="702"/>
      <point x="177" y="691"/>
      <point x="177" y="670" type="curve" smooth="yes"/>
      <point x="177" y="494" type="line" smooth="yes"/>
      <point x="177" y="473"/>
      <point x="190" y="464"/>
      <point x="211" y="464" type="curve" smooth="yes"/>
      <point x="226" y="464" type="line" smooth="yes"/>
      <point x="247" y="464"/>
      <point x="258" y="473"/>
      <point x="263" y="494" type="curve"/>
      <point x="277" y="553"/>
      <point x="304" y="664"/>
      <point x="304" y="670" type="curve" smooth="yes"/>
      <point x="304" y="691"/>
      <point x="290" y="702"/>
      <point x="247" y="702" type="curve" smooth="yes"/>
    </contour>
    <contour>
      <point x="94" y="702" type="line" smooth="yes"/>
      <point x="52" y="702"/>
      <point x="31" y="691"/>
      <point x="31" y="670" type="curve" smooth="yes"/>
      <point x="31" y="494" type="line" smooth="yes"/>
      <point x="31" y="473"/>
      <point x="44" y="464"/>
      <point x="65" y="464" type="curve" smooth="yes"/>
      <point x="80" y="464" type="line" smooth="yes"/>
      <point x="101" y="464"/>
      <point x="112" y="473"/>
      <point x="117" y="494" type="curve"/>
      <point x="131" y="553"/>
      <point x="158" y="664"/>
      <point x="158" y="670" type="curve" smooth="yes"/>
      <point x="158" y="691"/>
      <point x="144" y="702"/>
      <point x="101" y="702" type="curve" smooth="yes"/>
    </contour>
  </outline>
</glyph>
<glyph name="numbersign" format="1">
  <advance width="534"/>
  <unicode hex="0023"/>
  <outline>
    <contour>
      <point x="467" y="686" type="line" smooth="yes"/>
      <point x="435" y="686"/>
      <point x="413" y="676"/>
      <point x="407" y="655" type="curve" smooth="yes"/>
      <point x="366" y="513" type="line"/>
      <point x="272" y="513" type="line"/>
      <point x="301" y="615"/>
      <point x="315" y="654"/>
      <point x="315" y="664" type="curve"/>
      <point x="315" y="678"/>
      <point x="305" y="686"/>
      <point x="273" y="686" type="curve" smooth="yes"/>
      <point x="260" y="686" type="line" smooth="yes"/>
      <point x="228" y="686"/>
      <point x="206" y="676"/>
      <point x="200" y="655" type="curve" smooth="yes"/>
      <point x="159" y="513" type="line"/>
      <point x="91" y="513" type="line" smooth="yes"/>
      <point x="57" y="513"/>
      <point x="54" y="461"/>
      <point x="54" y="437" type="curve" smooth="yes"/>
      <point x="54" y="413"/>
      <point x="62" y="403"/>
      <point x="80" y="403" type="curve" smooth="yes"/>
      <point x="128" y="403" type="line"/>
      <point x="95" y="293" type="line"/>
      <point x="32" y="293" type="line" smooth="yes"/>
      <point x="-3" y="293"/>
      <point x="-4" y="240"/>
      <point x="-4" y="216" type="curve" smooth="yes"/>
      <point x="-4" y="193"/>
      <point x="4" y="183"/>
      <point x="21" y="183" type="curve" smooth="yes"/>
      <point x="64" y="183" type="line"/>
      <point x="28" y="56"/>
      <point x="18" y="37"/>
      <point x="17" y="21" type="curve" smooth="yes"/>
      <point x="16" y="6"/>
      <point x="26" y="-2"/>
      <point x="60" y="-2" type="curve" smooth="yes"/>
      <point x="73" y="-2" type="line" smooth="yes"/>
      <point x="105" y="-2"/>
      <point x="126" y="8"/>
      <point x="132" y="29" type="curve" smooth="yes"/>
      <point x="177" y="183" type="line"/>
      <point x="271" y="183" type="line"/>
      <point x="236" y="56"/>
      <point x="225" y="37"/>
      <point x="225" y="21" type="curve" smooth="yes"/>
      <point x="225" y="6"/>
      <point x="233" y="-2"/>
      <point x="267" y="-2" type="curve" smooth="yes"/>
      <point x="280" y="-2" type="line" smooth="yes"/>
      <point x="312" y="-2"/>
      <point x="333" y="8"/>
      <point x="339" y="29" type="curve" smooth="yes"/>
      <point x="384" y="183" type="line"/>
      <point x="446" y="183" type="line" smooth="yes"/>
      <point x="480" y="183"/>
      <point x="483" y="235"/>
      <point x="483" y="259" type="curve" smooth="yes"/>
      <point x="483" y="282"/>
      <point x="474" y="293"/>
      <point x="457" y="293" type="curve" smooth="yes"/>
      <point x="415" y="293" type="line"/>
      <point x="448" y="403" type="line"/>
      <point x="501" y="403" type="line" smooth="yes"/>
      <point x="535" y="403"/>
      <point x="538" y="455"/>
      <point x="538" y="479" type="curve" smooth="yes"/>
      <point x="538" y="502"/>
      <point x="529" y="513"/>
      <point x="512" y="513" type="curve" smooth="yes"/>
      <point x="479" y="513" type="line"/>
      <point x="508" y="615"/>
      <point x="522" y="654"/>
      <point x="522" y="664" type="curve"/>
      <point x="522" y="678"/>
      <point x="512" y="686"/>
      <point x="480" y="686" type="curve" smooth="yes"/>
    </contour>
    <contour>
      <point x="302" y="293" type="line"/>
      <point x="208" y="293" type="line"/>
      <point x="241" y="403" type="line"/>
      <point x="335" y="403" type="line"/>
    </contour>
  </outline>
</glyph>
<glyph name="period" format="1">
  <advance width="198"/>
  <unicode hex="002E"/>
  <outline>
    <contour>
      <point x="90" y="154" type="line" smooth="yes"/>
      <point x="49" y="154"/>
      <point x="28" y="143"/>
      <point x="26" y="122" type="curve" smooth="yes"/>
      <point x="17" y="30" type="line"/>
      <point x="17" y="8"/>
      <point x="28" y="-2"/>
      <point x="73" y="-2" type="curve" smooth="yes"/>
      <point x="105" y="-2" type="line" smooth="yes"/>
      <point x="146" y="-2"/>
      <point x="167" y="9"/>
      <point x="169" y="30" type="curve" smooth="yes"/>
      <point x="178" y="122" type="line"/>
      <point x="178" y="142"/>
      <point x="165" y="154"/>
      <point x="122" y="154" type="curve" smooth="yes"/>
    </contour>
  </outline>
</glyph>
<glyph name="one" format="1">
  <advance width="535"/>
  <unicode hex="0031"/>
  <outline>
    <contour>
      <point x="118" y="658" type="line" smooth="yes"/>
      <point x="89" y="653"/>
      <point x="88" y="635"/>
      <point x="88" y="605" type="curve" smooth="yes"/>
      <point x="88" y="577"/>
      <point x="92" y="546"/>
      <point x="112" y="546" type="curve"/>
      <point x="250" y="566" type="line"/>
      <point x="203" y="117" type="line"/>
      <point x="70" y="117" type="line" smooth="yes"/>
      <point x="41" y="117"/>
      <point x="32" y="82"/>
      <point x="32" y="36" type="curve" smooth="yes"/>
      <point x="32" y="11"/>
      <point x="40" y="0"/>
      <point x="58" y="0" type="curve" smooth="yes"/>
      <point x="446" y="0" type="line" smooth="yes"/>
      <point x="475" y="0"/>
      <point x="484" y="35"/>
      <point x="484" y="81" type="curve" smooth="yes"/>
      <point x="484" y="106"/>
      <point x="476" y="117"/>
      <point x="458" y="117" type="curve" smooth="yes"/>
      <point x="351" y="117" type="line"/>
      <point x="410" y="680" type="line"/>
      <point x="410" y="692"/>
      <point x="388" y="704"/>
      <point x="371" y="704" type="curve"/>
    </contour>
  </outline>
</glyph>
<glyph name="five" format="1">
  <advance width="535"/>
  <unicode hex="0035"/>
  <outline>
    <contour>
      <point x="167" y="700" type="line" smooth="yes"/>
      <point x="137" y="700"/>
      <point x="125" y="688"/>
      <point x="120" y="660" type="curve" smooth="yes"/>
      <point x="74" y="387"/>
      <point x="69" y="355"/>
      <point x="69" y="352" type="curve" smooth="yes"/>
      <point x="69" y="329"/>
      <point x="79" y="323"/>
      <point x="103" y="323" type="curve" smooth="yes"/>
      <point x="212" y="323" type="line" smooth="yes"/>
      <point x="294" y="323"/>
      <point x="326" y="290"/>
      <point x="326" y="233" type="curve" smooth="yes"/>
      <point x="326" y="155"/>
      <point x="281" y="109"/>
      <point x="208" y="109" type="curve" smooth="yes"/>
      <point x="111" y="109"/>
      <point x="73" y="149"/>
      <point x="59" y="149" type="curve" smooth="yes"/>
      <point x="48" y="149"/>
      <point x="35" y="127"/>
      <point x="35" y="55" type="curve" smooth="yes"/>
      <point x="35" y="-2"/>
      <point x="147" y="-8"/>
      <point x="196" y="-8" type="curve" smooth="yes"/>
      <point x="326" y="-8"/>
      <point x="478" y="55"/>
      <point x="478" y="255" type="curve" smooth="yes"/>
      <point x="478" y="396"/>
      <point x="387" y="440"/>
      <point x="248" y="440" type="curve" smooth="yes"/>
      <point x="222" y="440" type="line"/>
      <point x="247" y="583" type="line"/>
      <point x="449" y="583" type="line" smooth="yes"/>
      <point x="479" y="583"/>
      <point x="488" y="618"/>
      <point x="488" y="664" type="curve" smooth="yes"/>
      <point x="488" y="689"/>
      <point x="480" y="700"/>
      <point x="462" y="700" type="curve" smooth="yes"/>
    </contour>
  </outline>
</glyph>
<glyph name="question" format="1">
  <advance width="445"/>
  <unicode hex="003F"/>
  <outline>
    <contour>
      <point x="180" y="708"/>
      <point x="60" y="685"/>
      <point x="60" y="625" type="curve" smooth="yes"/>
      <point x="60" y="602"/>
      <point x="88" y="545"/>
      <point x="115" y="545" type="curve" smooth="yes"/>
      <point x="129" y="545"/>
      <point x="172" y="576"/>
      <point x="230" y="576" type="curve" smooth="yes"/>
      <point x="277" y="576"/>
      <point x="298" y="558"/>
      <point x="298" y="528" type="curve" smooth="yes"/>
      <point x="298" y="490"/>
      <point x="256" y="454"/>
      <point x="211" y="413" type="curve" smooth="yes"/>
      <point x="164" y="368"/>
      <point x="115" y="317"/>
      <point x="115" y="251" type="curve" smooth="yes"/>
      <point x="115" y="230"/>
      <point x="124" y="222"/>
      <point x="161" y="222" type="curve" smooth="yes"/>
      <point x="184" y="222" type="line" smooth="yes"/>
      <point x="217" y="222"/>
      <point x="231" y="228"/>
      <point x="240" y="249" type="curve"/>
      <point x="269" y="349"/>
      <point x="456" y="380"/>
      <point x="456" y="552" type="curve" smooth="yes"/>
      <point x="456" y="649"/>
      <point x="382" y="708"/>
      <point x="257" y="708" type="curve" smooth="yes"/>
    </contour>
    <contour>
      <point x="149" y="154" type="line" smooth="yes"/>
      <point x="107" y="154"/>
      <point x="87" y="143"/>
      <point x="85" y="122" type="curve" smooth="yes"/>
      <point x="76" y="30" type="line"/>
      <point x="76" y="8"/>
      <point x="87" y="-2"/>
      <point x="132" y="-2" type="curve" smooth="yes"/>
      <point x="164" y="-2" type="line" smooth="yes"/>
      <point x="205" y="-2"/>
      <point x="226" y="9"/>
      <point x="228" y="30" type="curve" smooth="yes"/>
      <point x="237" y="122" type="line"/>
      <point x="237" y="143"/>
      <point x="224" y="154"/>
      <point x="181" y="154" type="curve" smooth="yes"/>
    </contour>
  </outline>
</glyph>
<glyph name="at" format="1">
  <advance width="974"/>
  <unicode hex="0040"/>
  <outline>
    <contour>
      <point x="281" y="708"/>
      <point x="84" y="503"/>
      <point x="84" y="240" type="curve" smooth="yes"/>
      <point x="84" y="24"/>
      <point x="216" y="-123"/>
      <point x="410" y="-123" type="curve" smooth="yes"/>
      <point x="443" y="-123"/>
      <point x="554" y="-117"/>
      <point x="562" y="-76" type="curve" smooth="yes"/>
      <point x="564" y="-66"/>
      <point x="565" y="-52"/>
      <point x="565" y="-50" type="curve" smooth="yes"/>
      <point x="565" y="-41"/>
      <point x="563" y="-38"/>
      <point x="559" y="-38" type="curve" smooth="yes"/>
      <point x="546" y="-38"/>
      <point x="508" y="-69"/>
      <point x="410" y="-69" type="curve" smooth="yes"/>
      <point x="254" y="-69"/>
      <point x="148" y="56"/>
      <point x="148" y="240" type="curve" smooth="yes"/>
      <point x="148" y="472"/>
      <point x="318" y="654"/>
      <point x="534" y="654" type="curve" smooth="yes"/>
      <point x="695" y="654"/>
      <point x="803" y="546"/>
      <point x="803" y="383" type="curve" smooth="yes"/>
      <point x="803" y="252"/>
      <point x="744" y="141"/>
      <point x="674" y="141" type="curve" smooth="yes"/>
      <point x="650" y="141"/>
      <point x="639" y="153"/>
      <point x="639" y="177" type="curve" smooth="yes"/>
      <point x="639" y="195"/>
      <point x="670" y="472"/>
      <point x="670" y="477" type="curve" smooth="yes"/>
      <point x="670" y="493"/>
      <point x="657" y="503"/>
      <point x="623" y="503" type="curve" smooth="yes"/>
      <point x="611" y="503" type="line" smooth="yes"/>
      <point x="574" y="503"/>
      <point x="566" y="491"/>
      <point x="559" y="463" type="curve"/>
      <point x="542" y="480"/>
      <point x="505" y="508"/>
      <point x="457" y="508" type="curve" smooth="yes"/>
      <point x="348" y="508"/>
      <point x="272" y="400"/>
      <point x="272" y="239" type="curve" smooth="yes"/>
      <point x="272" y="121"/>
      <point x="326" y="58"/>
      <point x="407" y="58" type="curve" smooth="yes"/>
      <point x="474" y="58"/>
      <point x="524" y="106"/>
      <point x="535" y="161" type="curve"/>
      <point x="512" y="183" type="line"/>
      <point x="512" y="160" type="line"/>
      <point x="512" y="128"/>
      <point x="532" y="58"/>
      <point x="634" y="58" type="curve" smooth="yes"/>
      <point x="765" y="58"/>
      <point x="867" y="202"/>
      <point x="867" y="383" type="curve" smooth="yes"/>
      <point x="867" y="579"/>
      <point x="735" y="708"/>
      <point x="534" y="708" type="curve" smooth="yes"/>
    </contour>
    <contour>
      <point x="509" y="410"/>
      <point x="526" y="400"/>
      <point x="540" y="387" type="curve"/>
      <point x="528" y="327"/>
      <point x="522" y="267"/>
      <point x="519" y="207" type="curve"/>
      <point x="502" y="181"/>
      <point x="481" y="159"/>
      <point x="454" y="159" type="curve" smooth="yes"/>
      <point x="416" y="159"/>
      <point x="397" y="189"/>
      <point x="397" y="247" type="curve" smooth="yes"/>
      <point x="397" y="354"/>
      <point x="430" y="410"/>
      <point x="486" y="410" type="curve" smooth="yes"/>
    </contour>
  </outline>
</glyph>
<glyph name="A" format="1">
  <advance width="613"/>
  <unicode hex="0041"/>
  <outline>
    <contour>
      <point x="319" y="702" type="line" smooth="yes"/>
      <point x="290" y="702"/>
      <point x="267" y="697"/>
      <point x="260" y="681" type="curve" smooth="yes"/>
      <point x="-31" y="38" type="line" smooth="yes"/>
      <point x="-35" y="30"/>
      <point x="-37" y="24"/>
      <point x="-37" y="18" type="curve" smooth="yes"/>
      <point x="-37" y="5"/>
      <point x="-18" y="-2"/>
      <point x="21" y="-2" type="curve" smooth="yes"/>
      <point x="61" y="-2" type="line" smooth="yes"/>
      <point x="85" y="-2"/>
      <point x="102" y="4"/>
      <point x="109" y="19" type="curve" smooth="yes"/>
      <point x="164" y="141" type="line"/>
      <point x="406" y="141" type="line"/>
      <point x="435" y="19" type="line" smooth="yes"/>
      <point x="439" y="3"/>
      <point x="459" y="-2"/>
      <point x="489" y="-2" type="curve" smooth="yes"/>
      <point x="533" y="-2" type="line" smooth="yes"/>
      <point x="568" y="-2"/>
      <point x="587" y="7"/>
      <point x="587" y="21" type="curve" smooth="yes"/>
      <point x="587" y="24"/>
      <point x="585" y="35"/>
      <point x="584" y="38" type="curve" smooth="yes"/>
      <point x="426" y="681" type="line" smooth="yes"/>
      <point x="422" y="697"/>
      <point x="400" y="702"/>
      <point x="371" y="702" type="curve" smooth="yes"/>
    </contour>
    <contour>
      <point x="328" y="494"/>
      <point x="330" y="472"/>
      <point x="335" y="451" type="curve" smooth="yes"/>
      <point x="375" y="273" type="line"/>
      <point x="221" y="273" type="line"/>
      <point x="301" y="451" type="line" smooth="yes"/>
      <point x="310" y="471"/>
      <point x="317" y="494"/>
      <point x="323" y="515" type="curve"/>
      <point x="327" y="515" type="line"/>
    </contour>
    <contour>
      <point x="552" y="0" type="move" name="ogonek"/>
    </contour>
    <contour>
      <point x="301" y="0" type="move" name="bottom"/>
    </contour>
    <contour>
      <point x="345" y="700" type="move" name="top"/>
    </contour>
  </outline>
</glyph>
<glyph name="B" format="1">
  <advance width="593"/>
  <unicode hex="0042"/>
  <outline>
    <contour>
      <point x="149" y="700" type="line" smooth="yes"/>
      <point x="121" y="700"/>
      <point x="108" y="688"/>
      <point x="105" y="660" type="curve" smooth="yes"/>
      <point x="44" y="69"/>
      <point x="40" y="41"/>
      <point x="40" y="32" type="curve" smooth="yes"/>
      <point x="40" y="8"/>
      <point x="49" y="0"/>
      <point x="76" y="0" type="curve" smooth="yes"/>
      <point x="288" y="0" type="line" smooth="yes"/>
      <point x="458" y="0"/>
      <point x="560" y="80"/>
      <point x="560" y="220" type="curve" smooth="yes"/>
      <point x="560" y="290"/>
      <point x="514" y="352"/>
      <point x="441" y="367" type="curve"/>
      <point x="441" y="371" type="line"/>
      <point x="512" y="400"/>
      <point x="566" y="467"/>
      <point x="566" y="546" type="curve" smooth="yes"/>
      <point x="566" y="638"/>
      <point x="503" y="700"/>
      <point x="347" y="700" type="curve" smooth="yes"/>
    </contour>
    <contour>
      <point x="367" y="290"/>
      <point x="402" y="267"/>
      <point x="402" y="221" type="curve" smooth="yes"/>
      <point x="402" y="163"/>
      <point x="361" y="131"/>
      <point x="301" y="131" type="curve" smooth="yes"/>
      <point x="203" y="131" type="line"/>
      <point x="220" y="290" type="line"/>
      <point x="302" y="290" type="line" smooth="yes"/>
    </contour>
    <contour>
      <point x="377" y="570"/>
      <point x="404" y="549"/>
      <point x="404" y="507" type="curve" smooth="yes"/>
      <point x="404" y="460"/>
      <point x="368" y="421"/>
      <point x="303" y="421" type="curve" smooth="yes"/>
      <point x="234" y="421" type="line"/>
      <point x="250" y="570" type="line"/>
      <point x="321" y="570" type="line" smooth="yes"/>
    </contour>
  </outline>
</glyph>
<glyph name="N" format="1">
  <advance width="719"/>
  <unicode hex="004E"/>
  <outline>
    <contour>
      <point x="597" y="702" type="line" smooth="yes"/>
      <point x="555" y="702"/>
      <point x="536" y="691"/>
      <point x="534" y="670" type="curve" smooth="yes"/>
      <point x="492" y="270" type="line"/>
      <point x="476" y="300" type="line"/>
      <point x="272" y="675" type="line" smooth="yes"/>
      <point x="259" y="698"/>
      <point x="237" y="702"/>
      <point x="208" y="702" type="curve" smooth="yes"/>
      <point x="165" y="702" type="line" smooth="yes"/>
      <point x="123" y="702"/>
      <point x="104" y="691"/>
      <point x="102" y="670" type="curve" smooth="yes"/>
      <point x="35" y="30" type="line"/>
      <point x="35" y="9"/>
      <point x="49" y="-2"/>
      <point x="92" y="-2" type="curve" smooth="yes"/>
      <point x="121" y="-2" type="line" smooth="yes"/>
      <point x="163" y="-2"/>
      <point x="182" y="9"/>
      <point x="184" y="30" type="curve" smooth="yes"/>
      <point x="226" y="435" type="line"/>
      <point x="239" y="412" type="line"/>
      <point x="451" y="25" type="line" smooth="yes"/>
      <point x="464" y="2"/>
      <point x="486" y="-2"/>
      <point x="515" y="-2" type="curve" smooth="yes"/>
      <point x="553" y="-2" type="line" smooth="yes"/>
      <point x="595" y="-2"/>
      <point x="614" y="9"/>
      <point x="616" y="30" type="curve" smooth="yes"/>
      <point x="683" y="670" type="line"/>
      <point x="683" y="691"/>
      <point x="669" y="702"/>
      <point x="626" y="702" type="curve" smooth="yes"/>
    </contour>
    <contour>
      <point x="396" y="700" type="move" name="top"/>
    </contour>
    <contour>
      <point x="341" y="0" type="move" name="bottom"/>
    </contour>
  </outline>
</glyph>
<glyph name="T" format="1">
  <advance width="549"/>
  <unicode hex="0054"/>
  <outline>
    <contour>
      <point x="72" y="700" type="line" smooth="yes"/>
      <point x="43" y="700"/>
      <point x="34" y="661"/>
      <point x="34" y="609" type="curve" smooth="yes"/>
      <point x="34" y="581"/>
      <point x="42" y="569"/>
      <point x="60" y="569" type="curve" smooth="yes"/>
      <point x="219" y="569" type="line"/>
      <point x="162" y="29" type="line"/>
      <point x="162" y="0"/>
      <point x="202" y="-2"/>
      <point x="219" y="-2" type="curve" smooth="yes"/>
      <point x="254" y="-2" type="line" smooth="yes"/>
      <point x="293" y="-2"/>
      <point x="315" y="9"/>
      <point x="317" y="30" type="curve" smooth="yes"/>
      <point x="374" y="569" type="line"/>
      <point x="534" y="569" type="line" smooth="yes"/>
      <point x="563" y="569"/>
      <point x="572" y="608"/>
      <point x="572" y="660" type="curve" smooth="yes"/>
      <point x="572" y="688"/>
      <point x="564" y="700"/>
      <point x="546" y="700" type="curve" smooth="yes"/>
    </contour>
    <contour>
      <point x="275" y="350" type="move" name="center"/>
    </contour>
    <contour>
      <point x="234" y="0" type="move" name="bottom"/>
    </contour>
    <contour>
      <point x="309" y="700" type="move" name="top"/>
    </contour>
  </outline>
</glyph>
<glyph name="d" format="1">
  <advance width="565"/>
  <unicode hex="0064"/>
  <outline>
    <contour>
      <point x="453" y="754" type="line" smooth="yes"/>
      <point x="414" y="754"/>
      <point x="392" y="743"/>
      <point x="390" y="722" type="curve"/>
      <point x="390" y="722"/>
      <point x="380" y="628"/>
      <point x="365" y="490" type="curve"/>
      <point x="342" y="509"/>
      <point x="305" y="531"/>
      <point x="258" y="531" type="curve" smooth="yes"/>
      <point x="121" y="531"/>
      <point x="26" y="401"/>
      <point x="26" y="209" type="curve" smooth="yes"/>
      <point x="26" y="68"/>
      <point x="95" y="-8"/>
      <point x="198" y="-8" type="curve" smooth="yes"/>
      <point x="273" y="-8"/>
      <point x="332" y="44"/>
      <point x="352" y="109" type="curve"/>
      <point x="328" y="126" type="line"/>
      <point x="328" y="116" type="line"/>
      <point x="330" y="28"/>
      <point x="372" y="-8"/>
      <point x="449" y="-8" type="curve" smooth="yes"/>
      <point x="484" y="-8"/>
      <point x="531" y="7"/>
      <point x="537" y="44" type="curve" smooth="yes"/>
      <point x="543" y="79"/>
      <point x="544" y="102"/>
      <point x="544" y="104" type="curve" smooth="yes"/>
      <point x="544" y="113"/>
      <point x="542" y="115"/>
      <point x="536" y="115" type="curve" smooth="yes"/>
      <point x="532" y="115"/>
      <point x="521" y="109"/>
      <point x="507" y="109" type="curve" smooth="yes"/>
      <point x="486" y="109"/>
      <point x="477" y="119"/>
      <point x="477" y="142" type="curve" smooth="yes"/>
      <point x="477" y="152"/>
      <point x="538" y="723"/>
      <point x="538" y="723" type="curve"/>
      <point x="538" y="739"/>
      <point x="521" y="754"/>
      <point x="481" y="754" type="curve" smooth="yes"/>
    </contour>
    <contour>
      <point x="318" y="414"/>
      <point x="339" y="403"/>
      <point x="355" y="390" type="curve"/>
      <point x="333" y="172" type="line"/>
      <point x="313" y="140"/>
      <point x="287" y="113"/>
      <point x="254" y="113" type="curve" smooth="yes"/>
      <point x="202" y="113"/>
      <point x="176" y="149"/>
      <point x="176" y="218" type="curve" smooth="yes"/>
      <point x="176" y="346"/>
      <point x="219" y="414"/>
      <point x="292" y="414" type="curve" smooth="yes"/>
    </contour>
    <contour>
      <point x="519" y="752" type="move" name="caron"/>
    </contour>
    <contour>
      <point x="251" y="0" type="move" name="bottom"/>
    </contour>
    <contour>
      <point x="447" y="630" type="move" name="center"/>
    </contour>
  </outline>
</glyph>
<glyph name="v" format="1">
  <advance width="485"/>
  <unicode hex="0076"/>
  <outline>
    <contour>
      <point x="411" y="525" type="line" smooth="yes"/>
      <point x="382" y="525"/>
      <point x="360" y="520"/>
      <point x="353" y="504" type="curve" smooth="yes"/>
      <point x="275" y="319" type="line" smooth="yes"/>
      <point x="265" y="296"/>
      <point x="247" y="242"/>
      <point x="234" y="198" type="curve"/>
      <point x="230" y="198" type="line"/>
      <point x="224" y="242"/>
      <point x="220" y="295"/>
      <point x="215" y="319" type="curve" smooth="yes"/>
      <point x="175" y="504" type="line" smooth="yes"/>
      <point x="171" y="520"/>
      <point x="148" y="525"/>
      <point x="121" y="525" type="curve" smooth="yes"/>
      <point x="88" y="525" type="line" smooth="yes"/>
      <point x="42" y="525"/>
      <point x="25" y="516"/>
      <point x="25" y="500" type="curve" smooth="yes"/>
      <point x="25" y="496"/>
      <point x="26" y="491"/>
      <point x="27" y="485" type="curve" smooth="yes"/>
      <point x="137" y="19" type="line" smooth="yes"/>
      <point x="141" y="3"/>
      <point x="161" y="-2"/>
      <point x="191" y="-2" type="curve" smooth="yes"/>
      <point x="223" y="-2" type="line" smooth="yes"/>
      <point x="252" y="-2"/>
      <point x="274" y="3"/>
      <point x="281" y="19" type="curve" smooth="yes"/>
      <point x="489" y="485" type="line" smooth="yes"/>
      <point x="492" y="492"/>
      <point x="493" y="497"/>
      <point x="493" y="502" type="curve" smooth="yes"/>
      <point x="493" y="525"/>
      <point x="458" y="525"/>
      <point x="436" y="525" type="curve" smooth="yes"/>
    </contour>
  </outline>
</glyph>
<glyph name="z" format="1">
  <advance width="489"/>
  <unicode hex="007A"/>
  <outline>
    <contour>
      <point x="96" y="523" type="line" smooth="yes"/>
      <point x="67" y="523"/>
      <point x="58" y="488"/>
      <point x="58" y="442" type="curve" smooth="yes"/>
      <point x="58" y="417"/>
      <point x="66" y="406"/>
      <point x="84" y="406" type="curve" smooth="yes"/>
      <point x="272" y="406" type="line"/>
      <point x="11" y="92" type="line" smooth="yes"/>
      <point x="8" y="89"/>
      <point x="7" y="82"/>
      <point x="7" y="73" type="curve" smooth="yes"/>
      <point x="7" y="46"/>
      <point x="18" y="0"/>
      <point x="31" y="0" type="curve" smooth="yes"/>
      <point x="402" y="0" type="line" smooth="yes"/>
      <point x="431" y="0"/>
      <point x="440" y="35"/>
      <point x="440" y="81" type="curve" smooth="yes"/>
      <point x="440" y="106"/>
      <point x="432" y="117"/>
      <point x="414" y="117" type="curve" smooth="yes"/>
      <point x="207" y="117" type="line"/>
      <point x="468" y="431" type="line" smooth="yes"/>
      <point x="471" y="434"/>
      <point x="472" y="441"/>
      <point x="472" y="450" type="curve" smooth="yes"/>
      <point x="472" y="477"/>
      <point x="461" y="523"/>
      <point x="448" y="523" type="curve" smooth="yes"/>
    </contour>
    <contour>
      <point x="285" y="523" type="move" name="top"/>
    </contour>
    <contour>
      <point x="211" y="0" type="move" name="bottom"/>
    </contour>
  </outline>
</glyph>
<glyph name="uni00AD" format="1">
  <advance width="320"/>
  <unicode hex="00AD"/>
  <outline>
    <contour>
      <point x="63" y="319" type="line" smooth="yes"/>
      <point x="29" y="319"/>
      <point x="26" y="270"/>
      <point x="26" y="246" type="curve" smooth="yes"/>
      <point x="26" y="222"/>
      <point x="34" y="212"/>
      <point x="52" y="212" type="curve" smooth="yes"/>
      <point x="256" y="212" type="line" smooth="yes"/>
      <point x="289" y="212"/>
      <point x="293" y="262"/>
      <point x="293" y="285" type="curve" smooth="yes"/>
      <point x="293" y="308"/>
      <point x="284" y="319"/>
      <point x="267" y="319" type="curve" smooth="yes"/>
    </contour>
  </outline>
</glyph>
<glyph name="guillemotright" format="1">
  <advance width="471"/>
  <unicode hex="00BB"/>
  <outline>
    <contour>
      <point x="298" y="469"/>
      <point x="260" y="436"/>
      <point x="260" y="416" type="curve" smooth="yes"/>
      <point x="260" y="410"/>
      <point x="262" y="404"/>
      <point x="266" y="397" type="curve" smooth="yes"/>
      <point x="361" y="257" type="line"/>
      <point x="237" y="117" type="line" smooth="yes"/>
      <point x="230" y="109"/>
      <point x="225" y="101"/>
      <point x="225" y="93" type="curve" smooth="yes"/>
      <point x="225" y="71"/>
      <point x="261" y="46"/>
      <point x="279" y="46" type="curve" smooth="yes"/>
      <point x="289" y="46"/>
      <point x="298" y="50"/>
      <point x="308" y="60" type="curve" smooth="yes"/>
      <point x="451" y="213" type="line" smooth="yes"/>
      <point x="467" y="230"/>
      <point x="472" y="244"/>
      <point x="472" y="268" type="curve" smooth="yes"/>
      <point x="472" y="280"/>
      <point x="469" y="290"/>
      <point x="460" y="301" type="curve"/>
      <point x="349" y="454" type="line" smooth="yes"/>
      <point x="342" y="464"/>
      <point x="333" y="469"/>
      <point x="324" y="469" type="curve" smooth="yes"/>
    </contour>
    <contour>
      <point x="99" y="469"/>
      <point x="61" y="436"/>
      <point x="61" y="416" type="curve" smooth="yes"/>
      <point x="61" y="410"/>
      <point x="63" y="404"/>
      <point x="67" y="397" type="curve" smooth="yes"/>
      <point x="162" y="257" type="line"/>
      <point x="38" y="117" type="line" smooth="yes"/>
      <point x="31" y="109"/>
      <point x="26" y="101"/>
      <point x="26" y="93" type="curve" smooth="yes"/>
      <point x="26" y="71"/>
      <point x="62" y="46"/>
      <point x="80" y="46" type="curve" smooth="yes"/>
      <point x="90" y="46"/>
      <point x="99" y="50"/>
      <point x="109" y="60" type="curve" smooth="yes"/>
      <point x="252" y="213" type="line" smooth="yes"/>
      <point x="268" y="230"/>
      <point x="273" y="244"/>
      <point x="273" y="268" type="curve" smooth="yes"/>
      <point x="273" y="281"/>
      <point x="269" y="290"/>
      <point x="261" y="301" type="curve" smooth="yes"/>
      <point x="150" y="454" type="line" smooth="yes"/>
      <point x="143" y="464"/>
      <point x="134" y="469"/>
      <point x="125" y="469" type="curve" smooth="yes"/>
    </contour>
  </outline>
</glyph>
<glyph name="questiondown" format="1">
  <advance width="425"/>
  <unicode hex="00BF"/>
  <outline>
    <contour>
      <point x="271" y="301" type="line" smooth="yes"/>
      <point x="238" y="301"/>
      <point x="224" y="295"/>
      <point x="215" y="274" type="curve"/>
      <point x="186" y="174"/>
      <point x="-1" y="137"/>
      <point x="-1" y="-29" type="curve" smooth="yes"/>
      <point x="-1" y="-126"/>
      <point x="72" y="-185"/>
      <point x="197" y="-185" type="curve" smooth="yes"/>
      <point x="238" y="-185"/>
      <point x="331" y="-179"/>
      <point x="345" y="-130" type="curve" smooth="yes"/>
      <point x="354" y="-98"/>
      <point x="356" y="-48"/>
      <point x="356" y="-34" type="curve" smooth="yes"/>
      <point x="356" y="-24"/>
      <point x="352" y="-20"/>
      <point x="344" y="-20" type="curve" smooth="yes"/>
      <point x="332" y="-20"/>
      <point x="285" y="-53"/>
      <point x="225" y="-53" type="curve" smooth="yes"/>
      <point x="178" y="-53"/>
      <point x="156" y="-35"/>
      <point x="156" y="-5" type="curve" smooth="yes"/>
      <point x="156" y="36"/>
      <point x="208" y="75"/>
      <point x="257" y="122" type="curve" smooth="yes"/>
      <point x="300" y="163"/>
      <point x="340" y="211"/>
      <point x="340" y="272" type="curve" smooth="yes"/>
      <point x="340" y="293"/>
      <point x="331" y="301"/>
      <point x="294" y="301" type="curve" smooth="yes"/>
    </contour>
    <contour>
      <point x="291" y="525" type="line" smooth="yes"/>
      <point x="250" y="525"/>
      <point x="229" y="514"/>
      <point x="227" y="493" type="curve" smooth="yes"/>
      <point x="218" y="401" type="line"/>
      <point x="218" y="380"/>
      <point x="231" y="369"/>
      <point x="274" y="369" type="curve" smooth="yes"/>
      <point x="306" y="369" type="line" smooth="yes"/>
      <point x="348" y="369"/>
      <point x="368" y="380"/>
      <point x="370" y="401" type="curve" smooth="yes"/>
      <point x="379" y="493" type="line"/>
      <point x="379" y="515"/>
      <point x="368" y="525"/>
      <point x="323" y="525" type="curve" smooth="yes"/>
    </contour>
  </outline>
</glyph>
<glyph name="Thorn" format="1">
  <advance width="567"/>
  <unicode hex="00DE"/>
  <outline>
    <contour>
      <point x="164" y="702" type="line" smooth="yes"/>
      <point x="122" y="702"/>
      <point x="103" y="691"/>
      <point x="101" y="670" type="curve" smooth="yes"/>
      <point x="34" y="30" type="line"/>
      <point x="34" y="9"/>
      <point x="48" y="-2"/>
      <point x="91" y="-2" type="curve" smooth="yes"/>
      <point x="125" y="-2" type="line" smooth="yes"/>
      <point x="167" y="-2"/>
      <point x="186" y="9"/>
      <point x="188" y="30" type="curve" smooth="yes"/>
      <point x="201" y="155" type="line"/>
      <point x="314" y="155" type="line" smooth="yes"/>
      <point x="370" y="155"/>
      <point x="567" y="184"/>
      <point x="567" y="408" type="curve" smooth="yes"/>
      <point x="567" y="570"/>
      <point x="433" y="593"/>
      <point x="350" y="593" type="curve" smooth="yes"/>
      <point x="247" y="593" type="line"/>
      <point x="255" y="670" type="line"/>
      <point x="255" y="691"/>
      <point x="241" y="702"/>
      <point x="198" y="702" type="curve" smooth="yes"/>
    </contour>
    <contour>
      <point x="364" y="462"/>
      <point x="408" y="448"/>
      <point x="408" y="389" type="curve" smooth="yes"/>
      <point x="408" y="304"/>
      <point x="350" y="287"/>
      <point x="311" y="287" type="curve" smooth="yes"/>
      <point x="215" y="287" type="line"/>
      <point x="233" y="462" type="line"/>
      <point x="329" y="462" type="line" smooth="yes"/>
    </contour>
  </outline>
</glyph>
<glyph name="lslash" format="1">
  <advance width="293"/>
  <unicode hex="0142"/>
  <outline>
    <contour>
      <point x="158" y="755" type="line" smooth="yes"/>
      <point x="121" y="755"/>
      <point x="109" y="745"/>
      <point x="106" y="725" type="curve"/>
      <point x="106" y="725"/>
      <point x="88" y="565"/>
      <point x="71" y="409" type="curve"/>
      <point x="52" y="397" type="line" smooth="yes"/>
      <point x="34" y="386"/>
      <point x="19" y="372"/>
      <point x="19" y="331" type="curve" smooth="yes"/>
      <point x="19" y="319"/>
      <point x="21" y="311"/>
      <point x="28" y="311" type="curve" smooth="yes"/>
      <point x="32" y="311"/>
      <point x="37" y="313"/>
      <point x="44" y="317" type="curve" smooth="yes"/>
      <point x="63" y="327" type="line"/>
      <point x="52" y="220"/>
      <point x="43" y="130"/>
      <point x="43" y="119" type="curve" smooth="yes"/>
      <point x="43" y="29"/>
      <point x="86" y="-8"/>
      <point x="164" y="-8" type="curve" smooth="yes"/>
      <point x="199" y="-8"/>
      <point x="246" y="7"/>
      <point x="252" y="44" type="curve" smooth="yes"/>
      <point x="258" y="79"/>
      <point x="259" y="102"/>
      <point x="259" y="104" type="curve" smooth="yes"/>
      <point x="259" y="113"/>
      <point x="257" y="115"/>
      <point x="251" y="115" type="curve" smooth="yes"/>
      <point x="247" y="115"/>
      <point x="236" y="109"/>
      <point x="222" y="109" type="curve" smooth="yes"/>
      <point x="201" y="109"/>
      <point x="192" y="119"/>
      <point x="192" y="142" type="curve" smooth="yes"/>
      <point x="192" y="144"/>
      <point x="205" y="277"/>
      <point x="220" y="416" type="curve"/>
      <point x="247" y="432" type="line" smooth="yes"/>
      <point x="265" y="442"/>
      <point x="280" y="456"/>
      <point x="280" y="498" type="curve" smooth="yes"/>
      <point x="280" y="510"/>
      <point x="278" y="518"/>
      <point x="271" y="518" type="curve" smooth="yes"/>
      <point x="267" y="518"/>
      <point x="262" y="516"/>
      <point x="255" y="512" type="curve" smooth="yes"/>
      <point x="228" y="497" type="line"/>
      <point x="241" y="620"/>
      <point x="253" y="728"/>
      <point x="253" y="728" type="curve"/>
      <point x="253" y="744"/>
      <point x="242" y="755"/>
      <point x="206" y="755" type="curve" smooth="yes"/>
    </contour>
  </outline>
</glyph>
<glyph name="Eng" format="1">
  <advance width="719"/>
  <unicode hex="014A"/>
  <outline>
    <contour>
      <point x="597" y="702" type="line" smooth="yes"/>
      <point x="555" y="702"/>
      <point x="536" y="691"/>
      <point x="534" y="670" type="curve" smooth="yes"/>
      <point x="492" y="270" type="line"/>
      <point x="471" y="308" type="line"/>
      <point x="272" y="675" type="line" smooth="yes"/>
      <point x="259" y="698"/>
      <point x="237" y="702"/>
      <point x="208" y="702" type="curve" smooth="yes"/>
      <point x="165" y="702" type="line" smooth="yes"/>
      <point x="123" y="702"/>
      <point x="104" y="691"/>
      <point x="102" y="670" type="curve" smooth="yes"/>
      <point x="35" y="30" type="line"/>
      <point x="35" y="9"/>
      <point x="49" y="-2"/>
      <point x="92" y="-2" type="curve" smooth="yes"/>
      <point x="121" y="-2" type="line" smooth="yes"/>
      <point x="163" y="-2"/>
      <point x="182" y="9"/>
      <point x="184" y="30" type="curve" smooth="yes"/>
      <point x="226" y="435" type="line"/>
      <point x="247" y="397" type="line"/>
      <point x="489" y="-44" type="line"/>
      <point x="616" y="30" type="line"/>
      <point x="683" y="670" type="line"/>
      <point x="683" y="691"/>
      <point x="669" y="702"/>
      <point x="626" y="702" type="curve" smooth="yes"/>
    </contour>
    <component base="dotlessj" xOffset="435"/>
  </outline>
</glyph>
<glyph name="uni0327" format="1">
  <advance width="0"/>
  <unicode hex="0327"/>
  <outline>
    <component base="cedilla" xOffset="-213"/>
    <contour>
      <point x="-29" y="0" type="move" name="_bottom"/>
    </contour>
    <contour>
      <point x="-47" y="-203" type="move" name="bottom"/>
    </contour>
  </outline>
</glyph>
<glyph name="quoteright" format="1">
  <advance width="212"/>
  <unicode hex="2019"/>
  <outline>
    <contour>
      <point x="138" y="754" type="line" smooth="yes"/>
      <point x="96" y="754"/>
      <point x="76" y="737"/>
      <point x="74" y="710" type="curve"/>
      <point x="65" y="623"/>
      <point x="41" y="573"/>
      <point x="25" y="540" type="curve" smooth="yes"/>
      <point x="15" y="521"/>
      <point x="8" y="507"/>
      <point x="8" y="495" type="curve" smooth="yes"/>
      <point x="8" y="480"/>
      <point x="33" y="475"/>
      <point x="50" y="475" type="curve" smooth="yes"/>
      <point x="97" y="475"/>
      <point x="213" y="629"/>
      <point x="213" y="714" type="curve" smooth="yes"/>
      <point x="213" y="737"/>
      <point x="197" y="754"/>
      <point x="157" y="754" type="curve" smooth="yes"/>
    </contour>
  </outline>
</glyph>
<glyph name="ellipsis" format="1">
  <advance width="617"/>
  <unicode hex="2026"/>
  <outline>
    <contour>
      <point x="512" y="154" type="line" smooth="yes"/>
      <point x="471" y="154"/>
      <point x="450" y="143"/>
      <point x="448" y="122" type="curve" smooth="yes"/>
      <point x="439" y="30" type="line"/>
      <point x="439" y="8"/>
      <point x="450" y="-2"/>
      <point x="495" y="-2" type="curve" smooth="yes"/>
      <point x="527" y="-2" type="line" smooth="yes"/>
      <point x="568" y="-2"/>
      <point x="589" y="9"/>
      <point x="591" y="30" type="curve" smooth="yes"/>
      <point x="600" y="122" type="line"/>
      <point x="600" y="142"/>
      <point x="587" y="154"/>
      <point x="544" y="154" type="curve" smooth="yes"/>
    </contour>
    <contour>
      <point x="92" y="154" type="line" smooth="yes"/>
      <point x="50" y="154"/>
      <point x="30" y="143"/>
      <point x="28" y="122" type="curve" smooth="yes"/>
      <point x="19" y="30" type="line"/>
      <point x="19" y="8"/>
      <point x="30" y="-2"/>
      <point x="75" y="-2" type="curve" smooth="yes"/>
      <point x="107" y="-2" type="line" smooth="yes"/>
      <point x="148" y="-2"/>
      <point x="169" y="9"/>
      <point x="171" y="30" type="curve" smooth="yes"/>
      <point x="180" y="122" type="line"/>
      <point x="180" y="142"/>
      <point x="167" y="154"/>
      <point x="124" y="154" type="curve" smooth="yes"/>
    </contour>
    <contour>
      <point x="302" y="154" type="line" smooth="yes"/>
      <point x="260" y="154"/>
      <point x="240" y="143"/>
      <point x="238" y="122" type="curve" smooth="yes"/>
      <point x="229" y="30" type="line"/>
      <point x="229" y="8"/>
      <point x="240" y="-2"/>
      <point x="285" y="-2" type="curve" smooth="yes"/>
      <point x="317" y="-2" type="line" smooth="yes"/>
      <point x="358" y="-2"/>
      <point x="379" y="9"/>
      <point x="381" y="30" type="curve" smooth="yes"/>
      <point x="390" y="122" type="line"/>
      <point x="390" y="142"/>
      <point x="377" y="154"/>
      <point x="334" y="154" type="curve" smooth="yes"/>
    </contour>
  </outline>
</glyph>
<glyph name="guilsinglright" format="1">
  <advance width="300"/>
  <unicode hex="203A"/>
  <outline>
    <contour>
      <point x="96" y="469"/>
      <point x="58" y="436"/>
      <point x="58" y="416" type="curve" smooth="yes"/>
      <point x="58" y="410"/>
      <point x="60" y="404"/>
      <point x="64" y="397" type="curve" smooth="yes"/>
      <point x="159" y="257" type="line"/>
      <point x="35" y="117" type="line" smooth="yes"/>
      <point x="28" y="109"/>
      <point x="23" y="101"/>
      <point x="23" y="93" type="curve" smooth="yes"/>
      <point x="23" y="71"/>
      <point x="59" y="46"/>
      <point x="77" y="46" type="curve" smooth="yes"/>
      <point x="87" y="46"/>
      <point x="96" y="50"/>
      <point x="106" y="60" type="curve" smooth="yes"/>
      <point x="249" y="213" type="line" smooth="yes"/>
      <point x="265" y="230"/>
      <point x="270" y="244"/>
      <point x="270" y="268" type="curve" smooth="yes"/>
      <point x="270" y="281"/>
      <point x="266" y="290"/>
      <point x="258" y="301" type="curve" smooth="yes"/>
      <point x="147" y="454" type="line" smooth="yes"/>
      <point x="140" y="464"/>
      <point x="131" y="469"/>
      <point x="122" y="469" type="curve" smooth="yes"/>
    </contour>
  </outline>
</glyph>
<glyph name="approxequal" format="1">
  <advance width="547"/>
  <unicode hex="2248"/>
  <outline>
    <contour>
      <point x="162" y="411"/>
      <point x="70" y="367"/>
      <point x="70" y="330" type="curve" smooth="yes"/>
      <point x="70" y="309"/>
      <point x="90" y="279"/>
      <point x="111" y="279" type="curve" smooth="yes"/>
      <point x="128" y="279"/>
      <point x="140" y="290"/>
      <point x="176" y="290" type="curve" smooth="yes"/>
      <point x="228" y="290"/>
      <point x="271" y="248"/>
      <point x="347" y="248" type="curve" smooth="yes"/>
      <point x="390" y="248"/>
      <point x="490" y="286"/>
      <point x="490" y="326" type="curve" smooth="yes"/>
      <point x="490" y="348"/>
      <point x="472" y="384"/>
      <point x="448" y="384" type="curve" smooth="yes"/>
      <point x="430" y="384"/>
      <point x="410" y="369"/>
      <point x="383" y="369" type="curve" smooth="yes"/>
      <point x="331" y="369"/>
      <point x="287" y="411"/>
      <point x="212" y="411" type="curve" smooth="yes"/>
    </contour>
    <contour>
      <point x="141" y="215"/>
      <point x="49" y="171"/>
      <point x="49" y="134" type="curve" smooth="yes"/>
      <point x="49" y="113"/>
      <point x="69" y="83"/>
      <point x="90" y="83" type="curve" smooth="yes"/>
      <point x="107" y="83"/>
      <point x="119" y="94"/>
      <point x="155" y="94" type="curve" smooth="yes"/>
      <point x="207" y="94"/>
      <point x="250" y="52"/>
      <point x="326" y="52" type="curve" smooth="yes"/>
      <point x="369" y="52"/>
      <point x="469" y="90"/>
      <point x="469" y="130" type="curve" smooth="yes"/>
      <point x="469" y="152"/>
      <point x="451" y="188"/>
      <point x="427" y="188" type="curve" smooth="yes"/>
      <point x="409" y="188"/>
      <point x="389" y="173"/>
      <point x="362" y="173" type="curve" smooth="yes"/>
      <point x="310" y="173"/>
      <point x="266" y="215"/>
      <point x="191" y="215" type="curve" smooth="yes"/>
    </contour>
  </outline>
</glyph>
<glyph name="greaterequal" format="1">
  <advance width="566"/>
  <unicode hex="2265"/>
  <outline>
    <contour>
      <point x="78" y="578"/>
      <point x="76" y="524"/>
      <point x="76" y="507" type="curve" smooth="yes"/>
      <point x="76" y="484"/>
      <point x="83" y="467"/>
      <point x="101" y="460" type="curve" smooth="yes"/>
      <point x="381" y="344" type="line"/>
      <point x="77" y="248" type="line"/>
      <point x="43" y="235"/>
      <point x="38" y="185"/>
      <point x="38" y="156" type="curve" smooth="yes"/>
      <point x="38" y="139"/>
      <point x="43" y="131"/>
      <point x="54" y="131" type="curve" smooth="yes"/>
      <point x="57" y="131"/>
      <point x="61" y="132"/>
      <point x="65" y="133" type="curve" smooth="yes"/>
      <point x="503" y="292" type="line" smooth="yes"/>
      <point x="530" y="302"/>
      <point x="538" y="335"/>
      <point x="538" y="362" type="curve" smooth="yes"/>
      <point x="538" y="379"/>
      <point x="530" y="388"/>
      <point x="514" y="395" type="curve" smooth="yes"/>
      <point x="113" y="575" type="line" smooth="yes"/>
      <point x="109" y="577"/>
      <point x="106" y="578"/>
      <point x="103" y="578" type="curve" smooth="yes"/>
    </contour>
    <contour>
      <point x="63" y="107" type="line" smooth="yes"/>
      <point x="30" y="107"/>
      <point x="26" y="57"/>
      <point x="26" y="34" type="curve" smooth="yes"/>
      <point x="26" y="11"/>
      <point x="35" y="0"/>
      <point x="52" y="0" type="curve" smooth="yes"/>
      <point x="469" y="0" type="line" smooth="yes"/>
      <point x="503" y="0"/>
      <point x="506" y="49"/>
      <point x="506" y="73" type="curve" smooth="yes"/>
      <point x="506" y="97"/>
      <point x="498" y="107"/>
      <point x="480" y="107" type="curve" smooth="yes"/>
    </contour>
  </outline>
</glyph>
<glyph name="caron.alt" format="1">
  <advance width="293"/>
  <outline>
    <contour>
      <point x="174" y="700" type="line" smooth="yes"/>
      <point x="132" y="700"/>
      <point x="109" y="683"/>
      <point x="109" y="656" type="curve" smooth="yes"/>
      <point x="109" y="578"/>
      <point x="93" y="553"/>
      <point x="92" y="533" type="curve" smooth="yes"/>
      <point x="91" y="517"/>
      <point x="117" y="511"/>
      <point x="135" y="511" type="curve" smooth="yes"/>
      <point x="164" y="511"/>
      <point x="238" y="589"/>
      <point x="238" y="656" type="curve" smooth="yes"/>
      <point x="238" y="681"/>
      <point x="228" y="700"/>
      <point x="193" y="700" type="curve" smooth="yes"/>
    </contour>
    <contour>
      <point x="50" y="700" type="move" name="_caron"/>
    </contour>
  </outline>
</glyph>
<glyph name="circumflex.alt2" format="1">
  <advance width="320"/>
  <outline>
    <contour>
      <point x="162" y="694" type="line" smooth="yes"/>
      <point x="133" y="694"/>
      <point x="116" y="691"/>
      <point x="99" y="675" type="curve" smooth="yes"/>
      <point x="23" y="597" type="line" smooth="yes"/>
      <point x="18" y="591"/>
      <point x="16" y="586"/>
      <point x="16" y="582" type="curve" smooth="yes"/>
      <point x="16" y="576"/>
      <point x="23" y="572"/>
      <point x="35" y="572" type="curve" smooth="yes"/>
      <point x="59" y="572" type="line" smooth="yes"/>
      <point x="87" y="572"/>
      <point x="102" y="585"/>
      <point x="128" y="597" type="curve" smooth="yes"/>
      <point x="159" y="622" type="line"/>
      <point x="184" y="596" type="line" smooth="yes"/>
      <point x="204" y="583"/>
      <point x="218" y="572"/>
      <point x="248" y="572" type="curve" smooth="yes"/>
      <point x="270" y="572" type="line" smooth="yes"/>
      <point x="283" y="572"/>
      <point x="289" y="577"/>
      <point x="289" y="585" type="curve" smooth="yes"/>
      <point x="289" y="589"/>
      <point x="288" y="592"/>
      <point x="286" y="597" type="curve" smooth="yes"/>
      <point x="232" y="675" type="line" smooth="yes"/>
      <point x="219" y="692"/>
      <point x="202" y="694"/>
      <point x="173" y="694" type="curve" smooth="yes"/>
    </contour>
    <contour>
      <point x="175" y="745" type="move" name="tilde"/>
    </contour>
    <contour>
      <point x="170" y="700" type="move" name="top"/>
    </contour>
    <contour>
      <point x="149" y="523" type="move" name="_top"/>
    </contour>
  </outline>
</glyph>
